<?xml version="1.0" encoding="UTF-8"?>
<svg version="1.1" xmlns="http://www.w3.org/2000/svg" width="512" height="512">
<path d="M0 0 C11.77776907 9.26410274 11.77776907 9.26410274 14.49610901 13.12487793 C18.5647211 16.17179345 22.85883735 15.53619953 27.80444336 15.48242188 C29.45648773 15.48829063 29.45648773 15.48829063 31.14190674 15.49427795 C33.53563298 15.50025907 35.92939551 15.497072 38.32310295 15.4858551 C42.12040409 15.46861122 45.91694248 15.47609453 49.71424866 15.4901123 C58.47170988 15.51764514 67.22897377 15.50846809 75.9864502 15.49741364 C84.63157465 15.48692856 93.27631606 15.49229085 101.92141914 15.52406311 C105.64655247 15.53112062 109.37108981 15.51451822 113.09617615 15.49694824 C131.43627251 15.49873235 145.63631625 17.61047184 160 30 C170.57720195 42.33022052 174.31145028 55.18083541 174.26742554 71.14982605 C174.27195665 72.36030414 174.27648776 73.57078224 174.28115618 74.81794149 C174.29159459 78.16110777 174.2931315 81.50405819 174.29076743 84.84722531 C174.29035803 88.45951623 174.30141025 92.07177548 174.31088257 95.68405151 C174.32746732 102.75529784 174.33299099 109.82651081 174.33410732 116.89777496 C174.33505908 122.64881251 174.33917576 128.3998391 174.34550858 134.15087318 C174.36311479 150.47300588 174.37234852 166.79511232 174.37084763 183.11725458 C174.37076772 183.99645363 174.3706878 184.87565269 174.37060547 185.78149414 C174.37052371 186.66177268 174.37044195 187.54205122 174.37035771 188.44900487 C174.36954518 202.70814998 174.38867599 216.96718936 174.4168822 231.2263039 C174.44564697 245.88401831 174.45942049 260.54168122 174.45769465 275.19942456 C174.45703195 283.42194257 174.46247158 291.64434976 174.48405075 299.86684227 C174.50230999 306.86894923 174.5065712 313.87089514 174.4930319 320.87301566 C174.48652579 324.44128905 174.48629877 328.00925392 174.5037384 331.57749748 C174.52250264 335.45689098 174.50985297 339.33583997 174.49447632 343.21525574 C174.50476344 344.32754348 174.51505057 345.43983123 174.52564943 346.58582467 C174.40298357 360.66299776 169.58079021 373.72188177 159.99609375 384.08984375 C145.89885409 397.58015724 129.94778523 399.1675453 111.38037109 399.11352539 C110.03901166 399.1132427 108.69765207 399.11340284 107.35629272 399.1139679 C103.74541597 399.11425269 100.13457301 399.10840769 96.52370405 399.10139394 C92.73875574 399.09510715 88.95380649 399.09455241 85.16885376 399.09336853 C78.01515399 399.09027083 70.86146966 399.08207865 63.70777667 399.07201904 C55.55776243 399.06080922 47.40774742 399.05533522 39.25772738 399.05032361 C22.50514115 399.0398946 5.75257616 399.0215687 -11 399 C-11 416.16 -11 433.32 -11 451 C-3.41 451 4.18 451 12 451 C22.77606951 455.78936423 29.29208567 460.06874828 34 471 C35.42682118 475.58229111 35.544346 480.25077839 35 485 C33.5 487.625 33.5 487.625 31 489 C28.08937151 489.49779361 26.01956402 489.33550711 23 489 C19.87140228 486.7494757 19.3703922 484.2881137 18.5625 480.625 C17.26981195 475.52830807 15.87163191 471.85545763 11.29013634 468.89519978 C8.20822242 467.69049916 5.60422264 467.74493938 2.2953186 467.73930359 C1.62234816 467.73547804 0.94937772 467.73165249 0.25601423 467.72771102 C-1.99786045 467.71739644 -4.25147965 467.72137018 -6.50537109 467.7253418 C-8.12182348 467.72099443 -9.73827381 467.7158112 -11.35472107 467.70985413 C-15.7452661 467.69645464 -20.1357251 467.69588658 -24.5262866 467.69841743 C-28.19178798 467.69948663 -31.85727192 467.694605 -35.52276957 467.689812 C-44.17111744 467.67871325 -52.81942189 467.6782813 -61.46777344 467.68432617 C-70.38825576 467.69036543 -79.30858033 467.67805702 -88.22903574 467.6567561 C-95.88860498 467.63913885 -103.54812401 467.63313899 -111.20771277 467.63639385 C-115.78203661 467.63820686 -120.35624795 467.63556884 -124.93055344 467.62167931 C-129.23321523 467.60910378 -133.53563124 467.61104241 -137.83828926 467.62409019 C-139.41607941 467.62645624 -140.99388684 467.62372026 -142.57165718 467.61546707 C-144.72850658 467.60499972 -146.88453131 467.6130993 -149.04135132 467.6257782 C-150.24739202 467.62561046 -151.45343273 467.62544271 -152.69602013 467.62526989 C-157.22269548 468.13867542 -160.71534623 469.47744738 -163.6875 473 C-165.33341943 476.76210155 -166.24720209 480.57549015 -167.15625 484.57421875 C-168 487 -168 487 -171 489 C-174.47558203 489.53955608 -177.81691564 489.6487882 -180.9375 487.9375 C-183.67881167 482.93863754 -183.219983 477.72415587 -181.84765625 472.3984375 C-179.03467451 464.4391251 -174.49323707 458.04937559 -167 454 C-159 451 -159 451 -136 451 C-136 433.84 -136 416.68 -136 399 C-142.07764771 399.01571045 -142.07764771 399.01571045 -148.27807617 399.03173828 C-161.69305295 399.06493748 -175.10802914 399.08709552 -188.523036 399.10362434 C-196.65331819 399.11390939 -204.78356128 399.12791631 -212.91381836 399.15087891 C-220.00533508 399.17089809 -227.09682347 399.18373655 -234.18836766 399.18817699 C-237.93856874 399.19077002 -241.6886888 399.19680603 -245.43886375 399.21146011 C-248.97894019 399.22517927 -252.51890333 399.22919416 -256.05900383 399.22621536 C-257.95661755 399.2270157 -259.85421934 399.23770149 -261.75180054 399.24884033 C-279.32089833 399.20727829 -294.4310435 396.12920679 -307.6875 384 C-312.98577888 378.46686833 -316.03565694 372.00438956 -319 365 C-319.35343003 364.19238755 -319.70686007 363.3847751 -320.0710001 362.55268955 C-321.44087811 357.31399009 -321.2854176 352.21838113 -321.27415466 346.82493591 C-321.27939134 345.5875818 -321.28462802 344.35022769 -321.29002339 343.075378 C-321.302421 339.64788799 -321.30586717 336.22060327 -321.30542648 332.79310501 C-321.30707702 329.09352175 -321.32014812 325.39397565 -321.33161926 321.69441223 C-321.35445196 313.60737623 -321.3623883 305.5203665 -321.36744571 297.43330264 C-321.37070533 292.38006688 -321.3772295 287.32683872 -321.3844471 282.27360725 C-321.40401229 268.27265258 -321.42041647 254.27170496 -321.42332363 240.27073574 C-321.4235112 239.37506295 -321.42369877 238.47939017 -321.42389202 237.55657578 C-321.42425827 235.74094681 -321.42462197 233.92531784 -321.42498314 232.10968887 C-321.42516595 231.20845004 -321.42534876 230.30721121 -321.42553711 229.37866211 C-321.42571766 228.47631826 -321.42589821 227.57397442 -321.42608423 226.64428682 C-321.42962367 212.03256806 -321.45663203 197.42099687 -321.494035 182.80932926 C-321.5321609 167.79459388 -321.55148143 152.77993164 -321.55178314 137.76514679 C-321.55236682 129.34024397 -321.56080046 120.91551711 -321.58978081 112.49065971 C-321.61435229 105.31464408 -321.62153899 98.13886857 -321.60653328 90.96282219 C-321.59938729 87.30538798 -321.60012057 83.64842736 -321.62294388 79.99104691 C-321.64751572 76.01514068 -321.63283291 72.03990179 -321.61473083 68.06394958 C-321.63453079 66.35261665 -321.63453079 66.35261665 -321.65473074 64.60671133 C-321.50975317 50.59782182 -315.6178427 38.94905325 -306.0234375 28.9375 C-295.15004959 18.88719723 -282.83912207 15.48352157 -268.26147461 15.72631836 C-267.14451706 15.73218964 -266.02755951 15.73806091 -264.87675476 15.74411011 C-262.47109226 15.75767696 -260.0654586 15.77758376 -257.65989494 15.80326653 C-253.84613974 15.84039086 -250.03305729 15.85264443 -246.21913147 15.85731506 C-235.38257123 15.8720131 -224.54672846 15.90648332 -213.71069336 16.0168457 C-207.0647512 16.08424986 -200.41990533 16.09877842 -193.77356148 16.08413887 C-191.25021589 16.08791846 -188.7268268 16.10990891 -186.20380974 16.1508007 C-172.69953772 17.06874924 -172.69953772 17.06874924 -160.3586731 12.8454895 C-157.87712098 10.36165406 -156.00732179 7.86606761 -154 5 C-111.49207557 -30.89746629 -44.54669864 -33.8560235 0 0 Z M-156.54248047 30.33984375 C-178.04565129 54.83256764 -183.63744456 85.34845393 -182 117 C-177.56410606 167.43245731 -144.35830926 218.3315292 -106.5625 251 C-105.95148438 251.50789063 -105.34046875 252.01578125 -104.7109375 252.5390625 C-102.92541819 254.06368401 -101.3164164 255.68490364 -99.6875 257.375 C-95.13911602 261.99574464 -90.06057497 265.95981344 -85 270 C-83.54980469 271.16402344 -83.54980469 271.16402344 -82.0703125 272.3515625 C-79.71673375 274.23842592 -77.36001756 276.12120077 -75 278 C-71.13251638 276.35446009 -68.15069639 273.77845568 -65 271.0625 C-64.42386963 270.5687085 -63.84773926 270.07491699 -63.25415039 269.56616211 C-52.58629525 260.3748773 -42.56466477 250.66227086 -32.67749023 240.64086914 C-31.84290283 239.7977417 -31.00831543 238.95461426 -30.1484375 238.0859375 C-29.39739746 237.3232959 -28.64635742 236.5606543 -27.87255859 235.77490234 C-25.43808525 233.4673898 -24.43888265 233.03735171 -21.0625 232.75 C-18 233 -18 233 -16.1875 234.1875 C-14.61594017 236.58619658 -14.13406633 238.11757395 -14 241 C-15.95028767 245.72530348 -18.64513925 249.06544855 -22.26171875 252.58984375 C-22.7712056 253.09745743 -23.28069244 253.60507111 -23.80561829 254.12806702 C-24.88049755 255.1962572 -25.95895215 256.2608605 -27.04077148 257.32202148 C-28.67227863 258.92256749 -30.29306034 260.53334697 -31.91210938 262.14648438 C-37.01652474 267.21134657 -42.16791985 272.17252335 -47.68286133 276.79516602 C-48.11751709 277.19276123 -48.55217285 277.59035645 -49 278 C-49 278.33 -49 278.66 -49 279 C8.75 279 66.5 279 126 279 C126.08734791 241.19141565 126.08734791 241.19141565 126.14648438 203.3828125 C126.16431235 187.97327696 126.1853145 172.56379049 126.22631836 157.15429688 C126.2561619 145.93359637 126.27556099 134.71293553 126.28226548 123.49219644 C126.28618631 117.54747827 126.29544057 111.60287358 126.31719017 105.65819168 C126.33747569 100.06865957 126.34384995 94.47928824 126.33932304 88.88972282 C126.34015181 86.83293091 126.34616446 84.7761339 126.35761642 82.7193737 C126.3724365 79.92165253 126.36899225 77.12454673 126.36076355 74.32681274 C126.36950207 73.50386644 126.3782406 72.68092014 126.38724393 71.83303607 C126.40307263 69.34876905 126.40307263 69.34876905 126 66 C122.35996076 63.57330717 119.7027485 63.73088613 115.49926758 63.77294922 C114.73805099 63.77265717 113.97683441 63.77236511 113.19255066 63.77206421 C110.67642824 63.77345757 108.16060194 63.78901893 105.64453125 63.8046875 C103.90004132 63.80841761 102.15554929 63.81126459 100.41105652 63.81326294 C95.81936866 63.82089955 91.22780731 63.84054829 86.63616943 63.8626709 C81.95082307 63.88312871 77.26545627 63.89226452 72.58007812 63.90234375 C63.38666317 63.92379415 54.1933421 63.95793045 45 64 C45.27714844 65.19496094 45.55429687 66.38992187 45.83984375 67.62109375 C46.20598974 69.22650309 46.5718604 70.83197525 46.9375 72.4375 C47.11990234 73.22060547 47.30230469 74.00371094 47.49023438 74.81054688 C57.2340567 117.86052551 41.87996937 163.42104907 19.125 199.75 C15.12180084 206.00093963 10.90422092 212.08777115 6.5 218.0625 C6.00773926 218.73571289 5.51547852 219.40892578 5.00830078 220.10253906 C0.60141654 225.92869255 0.60141654 225.92869255 -3 227 C-8.43478261 226.56521739 -8.43478261 226.56521739 -11 224 C-11.70444645 218.90247018 -11.41327687 216.06608804 -8.47265625 211.80859375 C-7.35243241 210.33884271 -6.21476153 208.8822709 -5.0625 207.4375 C-3.85619126 205.84714262 -2.65440662 204.25334411 -1.45703125 202.65625 C-0.86486816 201.86992187 -0.27270508 201.08359375 0.33740234 200.2734375 C4.34336213 194.79568456 7.69321021 188.91733415 11 183 C11.38140137 182.3208252 11.76280273 181.64165039 12.15576172 180.94189453 C17.55617284 171.24787819 22.33786081 161.49613118 26 151 C26.38865234 149.88915039 26.38865234 149.88915039 26.78515625 148.75585938 C37.67857615 116.89129055 38.50483699 83.93024259 24.21875 53.0234375 C11.06459342 26.23504564 -12.08097051 7.86262987 -39.7109375 -2.375 C-50.83215845 -5.96760344 -61.58254731 -7.37038247 -73.25 -7.3125 C-74.44222168 -7.30686035 -75.63444336 -7.3012207 -76.86279297 -7.29541016 C-108.21382426 -6.86383674 -135.54636641 7.48079693 -156.54248047 30.33984375 Z M-298.875 45.375 C-305.76860812 54.90158344 -306.15571935 64.92414958 -306.12025452 76.33911133 C-306.12111053 77.35214828 -306.12196655 78.36518524 -306.12284851 79.40892029 C-306.12449822 82.7999754 -306.11898897 86.19098068 -306.11352539 89.58203125 C-306.11321895 92.05604552 -306.11335274 94.53005987 -306.11389065 97.0040741 C-306.11409334 102.95237249 -306.10981599 108.90065172 -306.10338932 114.84894532 C-306.09617475 121.73328254 -306.09539377 128.61761222 -306.09460449 135.50195312 C-306.08935928 153.66797114 -306.07539811 171.8339858 -306.0625 190 C-306.041875 230.59 -306.02125 271.18 -306 313 C-152.88 313 0.24 313 158 313 C158.061875 271.62625 158.12375 230.2525 158.1875 187.625 C158.21481201 174.55986816 158.24212402 161.49473633 158.27026367 148.03369141 C158.28029681 136.32487606 158.28029681 136.32487606 158.28633118 124.61605835 C158.28912674 119.39978942 158.3001226 114.18361408 158.31672668 108.96737671 C158.33788243 102.31134624 158.34347061 95.65547232 158.33921683 88.99940181 C158.34010619 86.55813184 158.34604604 84.11685717 158.35764539 81.6756146 C158.3726053 78.37338907 158.36895617 75.07167746 158.36076355 71.7694397 C158.36950154 70.81832495 158.37823954 69.8672102 158.38724232 68.88727379 C158.31521708 58.05804471 155.26064416 49.13135971 148 41 C139.80011146 34.00727638 131.39104867 31.53490835 120.8203125 31.65942383 C119.83403366 31.65898575 118.84775482 31.65854767 117.83158875 31.65809631 C114.59585253 31.66017386 111.36064487 31.68345629 108.125 31.70703125 C105.87199181 31.71263087 103.61897995 31.71689924 101.3659668 31.71989441 C95.45418095 31.73131427 89.54261841 31.76075698 83.63092041 31.79400635 C77.59121725 31.82476884 71.55147778 31.83841295 65.51171875 31.85351562 C53.67438139 31.88562932 41.83720931 31.93679114 30 32 C31.31031436 34.48034449 32.62313468 36.9593035 33.9375 39.4375 C34.31068359 40.14455078 34.68386719 40.85160156 35.06835938 41.58007812 C36.72492335 45.00478658 36.72492335 45.00478658 39 48 C41.59937577 48.10916818 44.17315573 48.15422698 46.7734375 48.15771484 C47.58818039 48.16279556 48.40292328 48.16787628 49.24235535 48.17311096 C51.01899121 48.18384129 52.79564081 48.19245094 54.57229614 48.19923019 C57.38933404 48.21099738 60.2062171 48.23044829 63.02319336 48.25234985 C71.0354288 48.31401239 79.04765214 48.36787497 87.06005859 48.40136719 C91.95670807 48.42238887 96.8530816 48.457762 101.74957275 48.50212479 C103.61212906 48.51623682 105.47473426 48.52499633 107.33734131 48.52817917 C109.95565321 48.53312335 112.57324273 48.55637385 115.19140625 48.58349609 C115.9522905 48.58048996 116.71317474 48.57748383 117.49711609 48.5743866 C124.18136755 48.67650099 130.14525205 50.26232734 135.875 53.75 C141.09857501 59.28084413 141.43718456 65.20609516 141.38095093 72.43939209 C141.3856309 73.37022275 141.39031087 74.30105341 141.39513266 75.26009107 C141.40706633 78.36852741 141.39763179 81.47652158 141.38818359 84.58496094 C141.3922499 86.81755327 141.39759211 89.05014359 141.40411377 91.2827301 C141.41778292 97.33815927 141.41249112 103.39343501 141.40297651 109.44886684 C141.39538168 115.78291169 141.40242469 122.1169434 141.40713501 128.45098877 C141.41294091 139.76433866 141.4036217 151.07761057 141.388357 162.39094487 C141.37494136 172.65177772 141.37729354 182.91250881 141.39111328 193.17333984 C141.40715956 205.092891 141.41314928 217.01238033 141.40427649 228.93194604 C141.39959283 235.24041962 141.39899449 241.54882306 141.40888596 247.85729218 C141.41752932 253.78346707 141.41158191 259.70944898 141.39420319 265.63560295 C141.39022498 267.81452297 141.39139504 269.99345915 141.39799118 272.17237282 C141.40614366 275.13798455 141.39596167 278.102971 141.38095093 281.06854248 C141.38764309 281.93827438 141.39433526 282.80800628 141.40123022 283.70409369 C141.34333529 289.56805515 141.34333529 289.56805515 139.66390479 291.68092084 C136.11066022 294.49779528 132.47760235 294.12621075 128.13237953 294.12863445 C127.42636415 294.13038749 126.72034878 294.13214053 125.992939 294.13394669 C123.60925653 294.13862661 121.22563454 294.13613608 118.84194946 294.13371277 C117.1228815 294.13557974 115.40381396 294.13787998 113.6847471 294.14057809 C108.94671711 294.14671659 104.20870471 294.1465601 99.47067165 294.14538372 C94.3662838 294.14518023 89.26190168 294.15069351 84.15751648 294.15544128 C74.15186212 294.16375959 64.14621364 294.16649666 54.14055611 294.16705366 C46.01042456 294.16752826 37.88029496 294.16958018 29.75016403 294.17275429 C6.71746646 294.18156403 -16.31522644 294.18617316 -39.34792571 294.18542381 C-41.2117767 294.18536388 -41.2117767 294.18536388 -43.11328125 294.18530273 C-44.35735955 294.18526185 -45.60143786 294.18522097 -46.8832155 294.18517885 C-67.05198425 294.18477228 -87.22073433 294.19434392 -107.38949768 294.2084411 C-128.0812752 294.22279013 -148.77304361 294.2297121 -169.46482623 294.22884732 C-181.08867405 294.22851485 -192.71250232 294.23128407 -204.33634567 294.24202538 C-214.23218435 294.25111102 -224.12799461 294.25332162 -234.02383564 294.24651595 C-239.07551053 294.24324094 -244.12713082 294.24322926 -249.17880058 294.2518692 C-253.80009891 294.25969198 -258.42129894 294.25834629 -263.04259475 294.24958507 C-264.71754974 294.24804072 -266.39251191 294.24990113 -268.06745844 294.25544515 C-270.33865823 294.26246691 -272.60950958 294.25724198 -274.88069725 294.24888897 C-276.14391945 294.24910634 -277.40714165 294.24932371 -278.70864332 294.24954766 C-281.93043821 294.00527411 -284.13251733 293.45342724 -287 292 C-289.96822236 288.4002919 -289.28049638 283.58377958 -289.26069641 279.15156555 C-289.26452196 278.24794932 -289.26834751 277.34433309 -289.27228898 276.41333455 C-289.28262578 273.37876905 -289.27862547 270.34439252 -289.2746582 267.30981445 C-289.27900441 265.13666102 -289.28418725 262.96350911 -289.29014587 260.7903595 C-289.30355982 254.88107241 -289.30411166 248.97184918 -289.30158257 243.06254983 C-289.30051406 238.12981563 -289.30539339 233.19709441 -289.310188 228.26436299 C-289.32129238 216.6242302 -289.32171595 204.98412967 -289.31567383 193.34399414 C-289.30963807 181.33913735 -289.32193284 169.33442646 -289.3432439 157.32958442 C-289.36086717 147.02285907 -289.36685993 136.71617102 -289.36360615 126.40943116 C-289.36179365 120.25385647 -289.36442597 114.09836538 -289.37832069 107.94280434 C-289.39090541 102.15044649 -289.38894865 96.35827113 -289.37590981 90.56591606 C-289.37354555 88.44272932 -289.37627327 86.31952972 -289.38453293 84.19635773 C-289.39501516 81.29181199 -289.38688754 78.38787681 -289.3742218 75.48335266 C-289.38159609 74.64850619 -289.38897037 73.81365972 -289.39656812 72.95351487 C-289.33927735 66.68295814 -288.57973879 60.05196247 -284.40185243 55.10930997 C-277.40281464 48.29761657 -268.21352561 48.69992532 -259.01953125 48.734375 C-257.88851486 48.73246155 -256.75749847 48.7305481 -255.59220886 48.72857666 C-253.21291886 48.72722121 -250.83362131 48.7308727 -248.4543457 48.73925781 C-244.81379651 48.74999618 -241.1737374 48.73932511 -237.53320312 48.7265625 C-235.21614475 48.72788362 -232.89908667 48.73044504 -230.58203125 48.734375 C-229.49549759 48.73032654 -228.40896393 48.72627808 -227.289505 48.72210693 C-225.76718513 48.73156342 -225.76718513 48.73156342 -224.21411133 48.74121094 C-222.88129875 48.74359772 -222.88129875 48.74359772 -221.52156067 48.74603271 C-218.68204133 49.03202425 -216.55281482 49.73441661 -214 51 C-212.47508002 54.04983996 -212.76437452 56.6423369 -213 60 C-214.18849182 61.6986084 -214.18849182 61.6986084 -216 63 C-218.38389587 63.37854004 -218.38389587 63.37854004 -221.23413086 63.38476562 C-222.30211411 63.39487671 -223.37009735 63.40498779 -224.47044373 63.41540527 C-225.62359573 63.41238403 -226.77674774 63.40936279 -227.96484375 63.40625 C-229.14969864 63.41708618 -230.33455353 63.42792236 -231.55531311 63.43908691 C-235.34943084 63.47343257 -239.14324702 63.48895973 -242.9375 63.5 C-247.92607294 63.51453565 -252.91396875 63.54816524 -257.90234375 63.59375 C-259.62903542 63.58921814 -259.62903542 63.58921814 -261.39060974 63.58459473 C-262.99731285 63.59976135 -262.99731285 63.59976135 -264.63647461 63.61523438 C-266.04853432 63.61831604 -266.04853432 63.61831604 -267.48912048 63.62145996 C-270.66826154 64.10074707 -271.79062715 64.63873441 -274 67 C-274.39156386 69.92765268 -274.52283394 72.48002953 -274.48101807 75.40910339 C-274.48443577 76.27737977 -274.48785347 77.14565614 -274.49137473 78.04024392 C-274.49798374 80.96099893 -274.47592783 83.8808428 -274.45410156 86.80151367 C-274.45297374 88.89059935 -274.45360567 90.97968661 -274.45587158 93.06877136 C-274.45702219 98.75036872 -274.43345667 104.43163029 -274.40557575 110.1131494 C-274.38061986 116.04687673 -274.37822469 121.98061122 -274.37347412 127.91438293 C-274.36102724 139.15538553 -274.32818242 150.39623305 -274.28807616 161.63716727 C-274.23506497 176.8237975 -274.21342682 192.01046993 -274.19006729 207.1971693 C-274.15242229 231.13156242 -274.07274271 255.06562826 -274 279 C-216.58 279 -159.16 279 -100 279 C-103.5319411 274.57977524 -103.5319411 274.57977524 -107.5 270.875 C-118.36409531 261.57452215 -128.69736576 251.87131373 -138 241 C-138.80179688 240.08734375 -139.60359375 239.1746875 -140.4296875 238.234375 C-151.5815945 225.43696963 -161.4279602 211.6477254 -170 197 C-170.65355469 195.93007812 -171.30710938 194.86015625 -171.98046875 193.7578125 C-184.63107329 172.56743817 -191.7904107 149.19380803 -196 125 C-196.1757959 124.06792725 -196.3515918 123.13585449 -196.53271484 122.17553711 C-200.87624773 92.65812215 -195.06139276 63.27370075 -180.3828125 37.50390625 C-178.89596037 34.99089928 -178.89596037 34.99089928 -178 32 C-190.90018022 31.93041628 -203.80031561 31.87714607 -216.70064545 31.84456348 C-222.69112285 31.8289236 -228.68147162 31.8077157 -234.671875 31.77368164 C-240.45552328 31.74102877 -246.23904801 31.72313436 -252.02278137 31.71536827 C-254.22672978 31.70983544 -256.43067161 31.69903117 -258.63456726 31.68280983 C-261.72722868 31.6609571 -264.81938288 31.6580364 -267.91210938 31.65942383 C-268.81842102 31.648638 -269.72473267 31.63785217 -270.6585083 31.6267395 C-281.99626869 31.68159186 -291.68196529 36.59192604 -298.875 45.375 Z M-306 329 C-306.63631174 353.33989874 -306.63631174 353.33989874 -295.1875 373.375 C-282.96076382 384.68929318 -266.95189643 383.28977134 -251.33789062 383.25537109 C-249.25249088 383.25812444 -247.16709219 383.26180642 -245.08169556 383.26634216 C-240.6101591 383.27442167 -236.13867255 383.27663095 -231.66712952 383.27439499 C-224.59994444 383.27155348 -217.53285861 383.28594232 -210.46569824 383.30337524 C-190.37656109 383.35033114 -170.28743183 383.3743625 -150.19824219 383.38085938 C-139.08873356 383.38460376 -127.97933831 383.40257528 -116.86987829 383.43595374 C-109.83993359 383.45621085 -102.81028036 383.45851806 -95.78031826 383.44767356 C-91.41854083 383.44507513 -87.05693499 383.45902627 -82.69520187 383.47775459 C-80.66786192 383.48309691 -78.64049077 383.48154524 -76.61316299 383.47271919 C-73.85338867 383.4616695 -71.09478496 383.47494509 -68.33508301 383.49447632 C-67.12212421 383.48078933 -67.12212421 383.48078933 -65.8846612 383.46682584 C-60.51671056 383.54115356 -60.51671056 383.54115356 -57.96733856 385.80503273 C-56.50813854 389.11607234 -57.17009818 391.55271552 -58 395 C-61.3792303 398.3792303 -64.97571462 398.13250001 -69.59472656 398.20532227 C-71.27601654 398.2352401 -71.27601654 398.2352401 -72.99127197 398.26576233 C-74.19555847 398.28247482 -75.39984497 398.29918732 -76.640625 398.31640625 C-77.87794373 398.33718735 -79.11526245 398.35796844 -80.39007568 398.37937927 C-83.67138691 398.43365872 -86.95272733 398.48391779 -90.23413086 398.53222656 C-93.58583104 398.58256092 -96.9374372 398.6382636 -100.2890625 398.69335938 C-106.8593078 398.80123515 -113.42960346 398.90038431 -120 399 C-120 416.16 -120 433.32 -120 451 C-89.31 451 -58.62 451 -27 451 C-27 433.84 -27 416.68 -27 399 C-30.3 398.34 -33.6 397.68 -37 397 C-40 394 -40 394 -40.375 390.5 C-40 387 -40 387 -38.87649536 385.30532932 C-36.11633086 383.38530131 -33.94348434 383.62047565 -30.60107422 383.61473083 C-29.94882024 383.60949514 -29.29656626 383.60425944 -28.624547 383.59886509 C-26.43440674 383.58487369 -24.24485325 383.59221249 -22.0546875 383.59936523 C-20.48590063 383.59362398 -18.91711818 383.58654173 -17.3483429 383.57821655 C-13.96634836 383.56308387 -10.58451187 383.55733092 -7.20248413 383.55874443 C-1.84754665 383.56077708 3.50717858 383.54121493 8.86206055 383.51856995 C19.27448261 383.47754726 29.68688819 383.45899237 40.09937286 383.44239807 C53.32386877 383.42006686 66.54831548 383.38633448 79.77273178 383.33519894 C85.0876609 383.31535406 90.40247971 383.30570229 95.71744442 383.30424678 C99.03834579 383.30148004 102.3591872 383.29061324 105.68006325 383.27773666 C107.21059419 383.27348656 108.74113898 383.27257678 110.2716732 383.27541161 C124.41234334 383.29858013 137.41020587 382.72524823 148.33203125 372.828125 C159.98426928 360.05705381 158 346.28438576 158 329 C4.88 329 -148.24 329 -306 329 Z " fill="#000000" transform="translate(330,23)"/>
<path d="M0 0 C0.70687958 -0.00287018 1.41375916 -0.00574036 2.14205933 -0.00869751 C3.63996174 -0.0107385 5.13789079 -0.00520607 6.63574219 0.00732422 C8.90101805 0.02323612 11.16447066 0.00755338 13.4296875 -0.01171875 C30.62585399 -0.03749227 30.62585399 -0.03749227 37.6171875 5.7109375 C45.07710049 14.87597346 45.80579541 22.92442129 44.8046875 34.3984375 C43.66751907 40.07703652 41.65779926 44.11022103 37.1796875 47.8359375 C27.30206601 54.21034405 17.12749319 53.75309615 5.8046875 53.3984375 C5.81516113 54.20063721 5.82563477 55.00283691 5.83642578 55.8293457 C5.87794517 59.45651122 5.90400093 63.08362678 5.9296875 66.7109375 C5.94644531 67.97357422 5.96320313 69.23621094 5.98046875 70.53710938 C5.98691406 71.74560547 5.99335938 72.95410156 6 74.19921875 C6.01047363 75.31466064 6.02094727 76.43010254 6.03173828 77.5793457 C5.8046875 80.3984375 5.8046875 80.3984375 3.8046875 83.3984375 C1.78125 83.98046875 1.78125 83.98046875 -0.5703125 84.2109375 C-1.34117187 84.29988281 -2.11203125 84.38882813 -2.90625 84.48046875 C-5.5345646 84.38628 -6.99218143 83.81057658 -9.1953125 82.3984375 C-10.67919132 79.43067987 -10.35130737 76.40524226 -10.35644531 73.15063477 C-10.36389267 72.0308876 -10.36389267 72.0308876 -10.37149048 70.88851929 C-10.38612059 68.41395148 -10.39291496 65.93944774 -10.3984375 63.46484375 C-10.40418759 61.74853004 -10.40994534 60.03221636 -10.41571045 58.31590271 C-10.4262224 54.71540019 -10.43206401 51.11492001 -10.43554688 47.5144043 C-10.44103663 42.89609648 -10.46507397 38.27808275 -10.49351883 33.65986729 C-10.5121213 30.11430491 -10.51734949 26.56881377 -10.51888275 23.02320671 C-10.52191447 21.32031583 -10.52996043 19.61742634 -10.54306793 17.91458321 C-10.56008134 15.53470438 -10.55826022 13.15554936 -10.55175781 10.77563477 C-10.5609726 10.06955582 -10.57018738 9.36347687 -10.5796814 8.63600159 C-10.55524526 5.78779955 -10.50450293 3.85190561 -8.87472534 1.46162415 C-6.05210961 -0.32529047 -3.28816869 0.00849656 0 0 Z M5.8046875 14.3984375 C5.8046875 22.9784375 5.8046875 31.5584375 5.8046875 40.3984375 C8.3415625 40.4603125 10.8784375 40.5221875 13.4921875 40.5859375 C14.67687622 40.62690552 14.67687622 40.62690552 15.88549805 40.66870117 C20.40794873 40.72187957 23.29154041 40.29890216 26.8046875 37.3984375 C29.17056465 34.12205611 29.13387172 30.92400226 29.1796875 26.9609375 C29.22222656 25.29224609 29.22222656 25.29224609 29.265625 23.58984375 C28.708637 19.73340986 27.54319006 18.12211062 24.8046875 15.3984375 C21.03977583 14.14346694 17.53262275 14.29182102 13.6171875 14.3359375 C11.0390625 14.3565625 8.4609375 14.3771875 5.8046875 14.3984375 Z " fill="#000000" transform="translate(259.1953125,87.6015625)"/>
<path d="M0 0 C0.7734375 -0.00515625 1.546875 -0.0103125 2.34375 -0.015625 C4.5 0.25 4.5 0.25 7.5 2.25 C7.81306175 4.80544772 7.93024305 7.12169168 7.91992188 9.68139648 C7.92839142 10.44740173 7.93686096 11.21340698 7.94558716 12.00262451 C7.96904328 14.54228177 7.96997729 17.08133623 7.96875 19.62109375 C7.9758466 21.38225042 7.98354485 23.14340476 7.99182129 24.90455627 C8.00528602 28.59927799 8.00682607 32.29378597 8.00097656 35.98852539 C7.9950797 40.72818013 8.0256615 45.46681078 8.06609344 50.20626736 C8.09191815 53.84452357 8.09485263 57.48253154 8.09120178 61.12086678 C8.09289808 62.86842485 8.10258938 64.61599377 8.12034607 66.36346245 C8.14243314 68.80607874 8.13288846 71.2466011 8.11523438 73.68920898 C8.13512924 74.77637962 8.13512924 74.77637962 8.15542603 75.88551331 C8.12145996 77.90354919 8.12145996 77.90354919 7.5 81.25 C5.02650205 83.27115944 3.51871704 84.18208553 0.33203125 84.39453125 C-5.27777778 83.47222222 -5.27777778 83.47222222 -7.5 81.25 C-7.70350291 78.7315905 -7.78322922 76.32266516 -7.7746582 73.80273438 C-7.7823246 72.65131706 -7.7823246 72.65131706 -7.79014587 71.47663879 C-7.80407774 68.93226384 -7.80308261 66.38815862 -7.80078125 63.84375 C-7.80466589 62.08019916 -7.80900007 60.31664926 -7.81376648 58.55310059 C-7.82123619 54.85421721 -7.82093176 51.15542927 -7.81567383 47.45654297 C-7.8098747 42.70807776 -7.82681712 37.96000203 -7.8500185 33.21160126 C-7.86472341 29.56912946 -7.86563205 25.9267522 -7.86250877 22.28425598 C-7.86302351 20.53309863 -7.86828962 18.78193619 -7.87832069 17.0308075 C-7.89060692 14.5860331 -7.88394143 12.14202698 -7.87231445 9.69726562 C-7.87995819 8.96888992 -7.88760193 8.24051422 -7.89547729 7.49006653 C-7.8742218 5.47619629 -7.8742218 5.47619629 -7.5 2.25 C-4.377998 0.16866533 -3.56733011 -0.0237822 0 0 Z " fill="#000000" transform="translate(228.5,87.75)"/>
</svg>
